<svg width="13" height="17" viewBox="0 0 13 17" fill="none" xmlns="http://www.w3.org/2000/svg">
<path d="M6.49991 3.73196C6.30101 3.73196 6.13959 3.89339 6.13959 4.09228C6.13959 4.29118 6.30101 4.4526 6.49991 4.4526C6.6988 4.4526 6.86022 4.29118 6.86022 4.09228C6.86022 3.89339 6.6988 3.73196 6.49991 3.73196Z" fill="#E0101B"/>
<path d="M12.8825 13.6706L11.7788 11.8312C11.3884 11.1801 11.1841 10.0766 11.1841 9.32311V6.97483C11.1841 4.78957 9.67987 2.94921 7.65254 2.43435C7.83371 2.19337 7.94122 1.89406 7.94122 1.57006C7.94122 0.775339 7.29467 0.128784 6.49995 0.128784C5.70523 0.128784 5.05868 0.775339 5.05868 1.57006C5.05868 1.89406 5.1662 2.19337 5.34736 2.43435C3.32 2.94921 1.81578 4.78957 1.81578 6.97483V9.32311C1.81578 10.0766 1.61148 11.1801 1.22114 11.831L0.117525 13.6704C-0.208275 14.2127 0.181733 14.903 0.815209 14.903H4.36863C4.54076 15.9241 5.43067 16.7046 6.49995 16.7046C7.56923 16.7046 8.45915 15.9241 8.63127 14.903H12.1847C12.8173 14.903 13.2086 14.2135 12.8825 13.6706ZM6.49992 0.84942C6.89727 0.84942 7.22055 1.1727 7.22055 1.57006C7.22055 1.96742 6.89727 2.29069 6.49992 2.29069C6.10256 2.29069 5.77928 1.96742 5.77928 1.57006C5.77928 1.1727 6.10256 0.84942 6.49992 0.84942ZM2.53641 9.32311V6.97483C2.53641 4.78936 4.31444 3.01133 6.49992 3.01133C8.68539 3.01133 10.4634 4.78936 10.4634 6.97483V9.32311C10.4634 10.0894 10.6512 11.2225 11.0606 12.0205H1.93926C2.34858 11.2226 2.53641 10.0894 2.53641 9.32311ZM6.49992 15.984C5.82958 15.984 5.26467 15.5203 5.10426 14.8994H7.89557C7.73519 15.5203 7.17025 15.984 6.49992 15.984ZM12.1847 14.1824H0.815209C0.742028 14.1824 0.697745 14.104 0.735398 14.0413L1.51549 12.7411H11.4843L12.2645 14.0415C12.3021 14.104 12.2579 14.1824 12.1847 14.1824Z" fill="#E0101B"/>
<path d="M8.07042 4.13835C7.89656 4.0416 7.67713 4.1044 7.58042 4.27833C7.48382 4.45229 7.54648 4.67165 7.72044 4.76833C8.52334 5.21433 9.02212 6.05985 9.02212 6.97484C9.02212 7.17381 9.18347 7.33516 9.38244 7.33516C9.58141 7.33516 9.74276 7.17381 9.74276 6.97484C9.74276 5.7983 9.10197 4.7114 8.07042 4.13835Z" fill="#E0101B"/>
</svg>
