<svg width="19" height="17" viewBox="0 0 19 17" fill="none" xmlns="http://www.w3.org/2000/svg">
<path d="M9.5 8.7155C9.70483 8.7155 9.87109 8.55104 9.87109 8.34844C9.87109 8.14584 9.70483 7.98138 9.5 7.98138C9.29517 7.98138 9.12891 8.14584 9.12891 8.34844C9.12891 8.55104 9.29517 8.7155 9.5 8.7155Z" fill="#E0101B"/>
<path d="M17.5156 5.77905H15.3211L11.9453 1.18526C11.6421 0.671237 10.9741 0.488283 10.4435 0.778917C9.90574 1.07443 9.71236 1.74445 10.0113 2.27653C10.0198 2.29159 10.0292 2.30607 10.0398 2.31983L12.6876 5.77905H6.31236L8.96017 2.31983C8.97061 2.30607 8.98018 2.29159 8.98873 2.27653C9.28691 1.74574 9.09571 1.07514 8.55603 0.77863C8.02664 0.48857 7.35867 0.671381 7.05484 1.18497L3.6789 5.77905H1.48438C0.665939 5.77905 0 6.43774 0 7.24727C0 7.88575 0.41893 8.44163 1.00906 8.63835C1.07197 8.68653 1.15054 8.71549 1.23606 8.71549C1.25317 8.71549 1.26926 8.7165 1.28607 8.71879C1.44582 8.74001 1.57236 8.85988 1.60136 9.01674L2.8638 15.8867C2.9602 16.4105 3.42088 16.7907 3.95925 16.7907H15.0407C15.5791 16.7907 16.0398 16.4105 16.1362 15.8866L17.3986 9.01688C17.4276 8.85988 17.5543 8.74001 17.7147 8.71879C17.7309 8.7165 17.747 8.71549 17.7639 8.71549C17.85 8.71549 17.9292 8.68624 17.9921 8.63749C18.5827 8.43948 19 7.8846 19 7.24727C19 6.43774 18.3341 5.77905 17.5156 5.77905ZM10.65 1.90073C10.5652 1.7271 10.631 1.51561 10.8035 1.42098C10.9831 1.32247 11.2095 1.38599 11.3085 1.56249C11.3158 1.57569 11.324 1.5883 11.3329 1.60035L14.4035 5.77905H13.6184L10.65 1.90073ZM7.66714 1.60049C7.67599 1.58845 7.68396 1.57597 7.69135 1.56307C7.79065 1.38642 8.01722 1.32276 8.1961 1.42069C8.36889 1.51561 8.43499 1.72681 8.35004 1.90073L5.38158 5.77905H4.59649L7.66714 1.60049ZM17.5156 7.98138H10.9844C10.7794 7.98138 10.6133 8.1457 10.6133 8.34844C10.6133 8.55118 10.7794 8.71176 10.9844 8.71176H16.714C16.6946 8.76653 16.6792 8.82331 16.6685 8.88181L15.4059 15.7552C15.3739 15.9299 15.2202 16.0566 15.0407 16.0566H3.95925C3.77965 16.0566 3.62614 15.9299 3.59396 15.7554L2.33151 8.8854C2.32079 8.8269 2.30542 8.77012 2.286 8.71549H8.01562C8.2206 8.71549 8.38672 8.55118 8.38672 8.34844C8.38672 8.1457 8.2206 7.98138 8.01562 7.98138H1.48438C1.07168 7.98138 0.742188 7.64874 0.742188 7.24727C0.742188 6.8425 1.07516 6.51316 1.48438 6.51316H17.5156C17.9248 6.51316 18.2578 6.8425 18.2578 7.24727C18.2578 7.6549 17.9206 7.98138 17.5156 7.98138Z" fill="#E0101B"/>
<path d="M9.5 9.81665C8.8861 9.81665 8.38672 10.3106 8.38672 10.9178V13.8543C8.38672 14.4615 8.8861 14.9554 9.5 14.9554C10.1139 14.9554 10.6133 14.4615 10.6133 13.8543V10.9178C10.6133 10.3095 10.1151 9.81665 9.5 9.81665ZM9.87109 13.8543C9.87109 14.0567 9.70468 14.2213 9.5 14.2213C9.29532 14.2213 9.12891 14.0567 9.12891 13.8543V10.9178C9.12891 10.7154 9.29532 10.5508 9.5 10.5508C9.70483 10.5508 9.87109 10.7152 9.87109 10.9178V13.8543Z" fill="#E0101B"/>
<path d="M13.2109 14.9554C13.8248 14.9554 14.3242 14.4615 14.3242 13.8543V10.9178C14.3242 10.3095 13.826 9.81665 13.2109 9.81665C12.597 9.81665 12.0977 10.3106 12.0977 10.9178V13.8543C12.0977 14.4615 12.597 14.9554 13.2109 14.9554ZM12.8398 10.9178C12.8398 10.7154 13.0063 10.5508 13.2109 10.5508C13.4158 10.5508 13.582 10.7152 13.582 10.9178V13.8543C13.582 14.0567 13.4156 14.2213 13.2109 14.2213C13.0063 14.2213 12.8398 14.0567 12.8398 13.8543V10.9178Z" fill="#E0101B"/>
<path d="M5.78906 9.81665C5.17516 9.81665 4.67578 10.3106 4.67578 10.9178V13.8543C4.67578 14.4615 5.17516 14.9554 5.78906 14.9554C6.40296 14.9554 6.90234 14.4615 6.90234 13.8543V10.9178C6.90234 10.3095 6.40412 9.81665 5.78906 9.81665ZM6.16016 13.8543C6.16016 14.0567 5.99374 14.2213 5.78906 14.2213C5.58438 14.2213 5.41797 14.0567 5.41797 13.8543V10.9178C5.41797 10.7154 5.58438 10.5508 5.78906 10.5508C5.99389 10.5508 6.16016 10.7151 6.16016 10.9178V13.8543Z" fill="#E0101B"/>
</svg>
