<svg width="27" height="18" viewBox="0 0 27 18" fill="none" xmlns="http://www.w3.org/2000/svg">
<path fill-rule="evenodd" clip-rule="evenodd" d="M0 1C0 1.55228 0.447715 2 1 2L26 2C26.5523 2 27 1.55228 27 1C27 0.447715 26.5523 0 26 0L1 0C0.447715 0 0 0.447715 0 1Z" fill="#E0101B"/>
<path fill-rule="evenodd" clip-rule="evenodd" d="M0 9C0 9.55228 0.447715 10 1 10L26 10C26.5523 10 27 9.55228 27 9C27 8.44772 26.5523 8 26 8L1 8C0.447715 8 0 8.44772 0 9Z" fill="#E0101B"/>
<path fill-rule="evenodd" clip-rule="evenodd" d="M0 17C0 17.5523 0.447715 18 1 18H26C26.5523 18 27 17.5523 27 17C27 16.4477 26.5523 16 26 16H1C0.447715 16 0 16.4477 0 17Z" fill="#E0101B"/>
</svg>
