<svg width="27" height="26" viewBox="0 0 27 26" fill="none" xmlns="http://www.w3.org/2000/svg">
<path fill-rule="evenodd" clip-rule="evenodd" d="M0.5876 2.1545C0.177593 1.78448 0.145177 1.15215 0.515195 0.742141C0.885213 0.332134 1.51755 0.299718 1.92755 0.669736L13.6148 11.501L25.3021 0.669736C25.7121 0.299718 26.3444 0.332134 26.7144 0.742141C27.0845 1.15215 27.052 1.78448 26.642 2.1545L15.0858 12.8643L26.6419 23.5739C27.0519 23.9439 27.0843 24.5763 26.7143 24.9863C26.3443 25.3963 25.7119 25.4287 25.3019 25.0587L13.6148 14.2276L1.9277 25.0587C1.51769 25.4287 0.885367 25.3963 0.515349 24.9863C0.145331 24.5763 0.17774 23.9439 0.587746 23.5739L12.1438 12.8643L0.5876 2.1545Z" fill="#E0101B"/>
</svg>
