<svg width="12" height="12" viewBox="0 0 12 12" fill="none" xmlns="http://www.w3.org/2000/svg">
<path fill-rule="evenodd" clip-rule="evenodd" d="M4.94117 8.26911C6.89041 8.26911 8.47057 6.72652 8.47057 4.82365C8.47057 2.92077 6.89041 1.37818 4.94117 1.37818C2.99193 1.37818 1.41176 2.92077 1.41176 4.82365C1.41176 6.72652 2.99193 8.26911 4.94117 8.26911ZM4.94117 9.64729C7.6701 9.64729 9.88234 7.48767 9.88234 4.82365C9.88234 2.15962 7.6701 0 4.94117 0C2.21224 0 0 2.15962 0 4.82365C0 7.48767 2.21224 9.64729 4.94117 9.64729Z" fill="#E0101B"/>
<path fill-rule="evenodd" clip-rule="evenodd" d="M8.47059 7.58002L12 11.0255L11.0017 12L7.47233 8.55454L8.47059 7.58002Z" fill="#E0101B"/>
</svg>
