<svg width="15" height="18" viewBox="0 0 15 18" fill="none" xmlns="http://www.w3.org/2000/svg">
<path d="M10.9606 9.0769C10.7381 9.36156 10.4882 9.62435 10.2012 9.86154C11.8397 10.8166 12.9459 12.6121 12.9459 14.6653C12.9459 15.7747 10.5537 16.6437 7.49996 16.6437C4.44619 16.6437 2.05404 15.7747 2.05404 14.6653C2.05404 12.6121 3.16024 10.8166 4.79877 9.86154C4.51175 9.62435 4.26182 9.3616 4.03932 9.0769C2.21462 10.2478 1 12.315 1 14.6653C1 15.3772 1.38365 16.3695 3.21149 17.0533C4.35164 17.4799 5.87466 17.7148 7.5 17.7148C9.12534 17.7148 10.6484 17.4799 11.7885 17.0533C13.6163 16.3695 14 15.3772 14 14.6653C13.9999 12.315 12.7853 10.2478 10.9606 9.0769Z" fill="#E0101B" stroke="#F5F5F5" stroke-width="0.3"/>
<path d="M7.49996 9.78265C9.54847 9.78265 11.1259 7.77058 11.1259 5.39134C11.1259 3.011 9.54767 1 7.49996 1C5.45146 1 3.87402 3.01207 3.87402 5.3913C3.87402 7.77164 5.45229 9.78265 7.49996 9.78265ZM7.49996 2.07104C8.91809 2.07104 10.0719 3.5605 10.0719 5.3913C10.0719 7.22211 8.91809 8.71157 7.49996 8.71157C6.08184 8.71157 4.92806 7.22211 4.92806 5.3913C4.92806 3.5605 6.08184 2.07104 7.49996 2.07104Z" fill="#E0101B" stroke="#F5F5F5" stroke-width="0.3"/>
</svg>
